<svg xmlns="http://www.w3.org/2000/svg" xmlns:xlink="http://www.w3.org/1999/xlink" width="31.001" height="31.001" viewBox="0 0 31.001 31.001"><defs><style>.a{fill:none;}.b{clip-path:url(#a);}.c{fill:#fff;fill-rule:evenodd;}</style><clipPath id="a"><rect class="a" width="31.001" height="31.001"/></clipPath></defs><g class="b"><path class="c" d="M15.5,2.756a47.527,47.527,0,0,1,6.2.172,7.988,7.988,0,0,1,2.928.517,6.049,6.049,0,0,1,2.928,2.928A7.988,7.988,0,0,1,28.073,9.3c0,1.55.172,2.067.172,6.2a47.528,47.528,0,0,1-.172,6.2,7.988,7.988,0,0,1-.517,2.928,6.048,6.048,0,0,1-2.928,2.928,7.988,7.988,0,0,1-2.928.517c-1.55,0-2.067.172-6.2.172a47.528,47.528,0,0,1-6.2-.172,7.988,7.988,0,0,1-2.928-.517,6.048,6.048,0,0,1-2.928-2.928A7.988,7.988,0,0,1,2.928,21.7c0-1.55-.172-2.067-.172-6.2a47.527,47.527,0,0,1,.172-6.2,7.988,7.988,0,0,1,.517-2.928A6.186,6.186,0,0,1,4.65,4.65,2.912,2.912,0,0,1,6.372,3.445,7.988,7.988,0,0,1,9.3,2.928a47.527,47.527,0,0,1,6.2-.172M15.5,0A50.888,50.888,0,0,0,9.128.172,10.633,10.633,0,0,0,5.339.861,6.742,6.742,0,0,0,2.583,2.583,6.742,6.742,0,0,0,.861,5.339,7.847,7.847,0,0,0,.172,9.128,50.888,50.888,0,0,0,0,15.5a50.888,50.888,0,0,0,.172,6.372,10.633,10.633,0,0,0,.689,3.789,6.742,6.742,0,0,0,1.722,2.756A6.742,6.742,0,0,0,5.339,30.14a10.633,10.633,0,0,0,3.789.689A50.888,50.888,0,0,0,15.5,31a50.888,50.888,0,0,0,6.372-.172,10.633,10.633,0,0,0,3.789-.689,7.226,7.226,0,0,0,4.478-4.478,10.633,10.633,0,0,0,.689-3.789c0-1.722.172-2.239.172-6.372a50.888,50.888,0,0,0-.172-6.372,10.633,10.633,0,0,0-.689-3.789,6.742,6.742,0,0,0-1.722-2.756A6.742,6.742,0,0,0,25.662.861,10.633,10.633,0,0,0,21.873.172,50.888,50.888,0,0,0,15.5,0m0,7.578A7.8,7.8,0,0,0,7.578,15.5,7.922,7.922,0,1,0,15.5,7.578m0,13.089A5.075,5.075,0,0,1,10.334,15.5,5.075,5.075,0,0,1,15.5,10.334,5.075,5.075,0,0,1,20.667,15.5,5.075,5.075,0,0,1,15.5,20.667M23.767,5.339a1.894,1.894,0,1,0,1.894,1.894,1.911,1.911,0,0,0-1.894-1.894"/></g></svg>